<svg class="mx-biz-component-logo" fill="none" height="20" viewBox="0 0 32 20" width="32" xmlns="http://www.w3.org/2000/svg"><g clip-path="url(#clip0_2897_4417)"><path d="M31 13.9262L24.2965 2.29821C22.8269 -0.125359 19.2431 -0.151142 17.8251 2.40134L10.7864 14.4934C9.47155 16.7107 11.0958 19.4952 13.7257 19.4952H27.8287C30.4843 19.4952 32.4696 16.6333 31 13.9262Z" fill="#3156AA"></path><path d="M21.3325 14.8286L20.92 14.1066C20.5333 13.4363 19.6824 11.9925 19.6824 11.9925L14.0103 2.14352C12.5407 -0.048 9.06001 -0.228478 7.5904 2.53026L0.990062 13.9519C-0.376415 16.3497 1.24789 19.4694 4.21288 19.4952H18.2386H24.2202H27.7782C24.1428 19.521 22.9826 17.6389 21.3325 14.8286Z" fill="#1972E2"></path><path d="M21.3329 14.8279L20.9204 14.106C20.5336 13.4356 19.6828 11.9918 19.6828 11.9918L16.0217 5.54614L10.762 14.5185C9.44714 16.7358 11.0714 19.5203 13.7012 19.5203H18.2132H24.1948H27.7785C24.1174 19.4945 22.983 17.6382 21.3329 14.8279Z" fill="url(#paint0_linear_2897_4417)"></path></g><defs><linearGradient gradientUnits="userSpaceOnUse" id="paint0_linear_2897_4417" x1="8.89013" x2="25.1842" y1="10.4418" y2="16.463"><stop stop-color="#264CA2" stop-opacity="0"></stop><stop offset="1" stop-color="#234588"></stop></linearGradient><clipPath id="clip0_2897_4417"><rect fill="white" height="20" width="32"></rect></clipPath></defs></svg>